<?xml version="1.0" encoding="UTF-8"?>
<svg width="80" height="32" viewBox="0 0 80 32" xmlns="http://www.w3.org/2000/svg">
  <!-- HRLA Text for Navigation -->
  <g transform="translate(0, 4)">
    <!-- H -->
    <rect x="2" y="2" width="3" height="20" fill="#FFFFFF"/>
    <rect x="2" y="10" width="8" height="3" fill="#FFFFFF"/>
    <rect x="7" y="2" width="3" height="20" fill="#FFFFFF"/>
    
    <!-- R -->
    <rect x="14" y="2" width="3" height="20" fill="#FFFFFF"/>
    <rect x="14" y="2" width="8" height="3" fill="#FFFFFF"/>
    <rect x="19" y="5" width="3" height="3" fill="#FFFFFF"/>
    <rect x="14" y="10" width="8" height="3" fill="#FFFFFF"/>
    <path d="M19 13 L22 22" stroke="#FFFFFF" stroke-width="3"/>
    
    <!-- L -->
    <rect x="26" y="2" width="3" height="20" fill="#FFFFFF"/>
    <rect x="26" y="19" width="8" height="3" fill="#FFFFFF"/>
    
    <!-- A -->
    <path d="M38 22 L42 2 L46 22" stroke="#FFFFFF" stroke-width="3" fill="none"/>
    <rect x="40" y="10" width="4" height="3" fill="#FFFFFF"/>
  </g>
  
  <!-- Small robot icon -->
  <g transform="translate(52, 16)">
    <circle cx="0" cy="0" r="8" fill="#E8F4FD" stroke="#4A90E2" stroke-width="1"/>
    <circle cx="-3" cy="-2" r="1.5" fill="#2E5BBA"/>
    <circle cx="3" cy="-2" r="1.5" fill="#2E5BBA"/>
    <path d="M-3 2 Q0 4 3 2" stroke="#2E5BBA" stroke-width="1" fill="none"/>
    <line x1="0" y1="-8" x2="0" y2="-12" stroke="#4A90E2" stroke-width="1"/>
    <circle cx="0" cy="-13" r="1" fill="#7DD3FC"/>
  </g>
</svg>